<mxfile host="app.diagrams.net" modified="2023-09-15T10:25:22.994Z" agent="Mozilla/5.0 (Windows NT 10.0; Win64; x64) AppleWebKit/537.36 (KHTML, like Gecko) Chrome/116.0.0.0 Safari/537.36 Edg/116.0.1938.81" version="21.7.5" etag="_mJZidINI5KkIVO6HhUL" type="github">
  <diagram name="PÃ¡gina-1" id="1hv48T3_cQqEcR7NiF0l">
    <mxGraphModel>
      <root>
        <mxCell id="0" />
        <mxCell id="1" parent="0" />
      </root>
    </mxGraphModel>
  </diagram>
</mxfile>
